<?xml version="1.0" encoding="UTF-8" standalone="no"?>
<svg
   width="355"
   height="86"
   viewBox="0 0 355 86"
   fill="none"
   version="1.1"
   id="svg45"
   sodipodi:docname="protonmail.svg"
   inkscape:version="1.2.2 (b0a8486541, 2022-12-01)"
   xmlns:inkscape="http://www.inkscape.org/namespaces/inkscape"
   xmlns:sodipodi="http://sodipodi.sourceforge.net/DTD/sodipodi-0.dtd"
   xmlns="http://www.w3.org/2000/svg"
   xmlns:svg="http://www.w3.org/2000/svg">
  <sodipodi:namedview
     id="namedview47"
     pagecolor="#ffffff"
     bordercolor="#000000"
     borderopacity="0.25"
     inkscape:showpageshadow="2"
     inkscape:pageopacity="0.0"
     inkscape:pagecheckerboard="0"
     inkscape:deskcolor="#d1d1d1"
     showgrid="false"
     inkscape:zoom="2.4268775"
     inkscape:cx="138.65554"
     inkscape:cy="42.85342"
     inkscape:window-width="1920"
     inkscape:window-height="999"
     inkscape:window-x="0"
     inkscape:window-y="0"
     inkscape:window-maximized="1"
     inkscape:current-layer="svg45" />
  <path
     d="m 144,55.3119 v 13.8456 h 9.668 V 55.9167 c 0,-1.2852 0.504,-2.5272 1.417,-3.4344 0.903,-0.9072 2.138,-1.4256 3.416,-1.4256 h 9.915 c 4.619,0 9.055,-1.8468 12.321,-5.1408 3.265,-3.2832 5.102,-7.7436 5.102,-12.3875 0,-4.644 -1.837,-9.1044 -5.102,-12.3984 C 177.471,17.8468 173.035,16 168.405,16 H 144 v 17.3016 h 9.668 v -8.154 h 14.093 c 2.191,0 4.286,0.8748 5.832,2.43 1.547,1.5552 2.417,3.6612 2.417,5.8644 0,2.2032 -0.87,4.3091 -2.417,5.8643 -1.546,1.5552 -3.641,2.43 -5.832,2.43 h -10.237 c -1.773,0 -3.534,0.3456 -5.167,1.0368 -1.643,0.6804 -3.126,1.6848 -4.383,2.9484 -1.256,1.2636 -2.245,2.7648 -2.932,4.4064 -0.688,1.6308 -1.042,3.402 -1.042,5.184 z"
     fill="#1b1340"
     id="path2" />
  <path
     d="M 187.332,69.1574 V 48.0651 c 0,-8.6076 4.995,-15.4548 14.996,-15.4548 1.6,-0.0216 3.201,0.1512 4.769,0.5292 v 8.6724 c -1.139,-0.0756 -2.116,-0.0756 -2.578,-0.0756 -5.296,0 -7.573,2.4408 -7.573,7.3872 v 20.0339 z"
     fill="#1b1340"
     id="path4" />
  <path
     d="m 209.975,51.2728 c 0,-10.5839 7.949,-18.6515 19.013,-18.6515 11.064,0 19.013,8.0676 19.013,18.6515 0,10.584 -7.949,18.7272 -19.013,18.7272 -11.064,0 -19.013,-8.154 -19.013,-18.7272 z m 28.552,0 c 0,-6.0155 -4.017,-10.2815 -9.539,-10.2815 -5.532,0 -9.538,4.2552 -9.538,10.2815 0,6.0912 4.017,10.2816 9.538,10.2816 5.532,0 9.539,-4.2012 9.539,-10.2816 z"
     fill="#1b1340"
     id="path6" />
  <path
     d="m 278.744,51.2728 c 0,-10.5839 7.949,-18.6515 19.013,-18.6515 11.053,0 19.002,8.0676 19.002,18.6515 C 316.759,61.8568 308.81,70 297.757,70 286.693,70 278.744,61.846 278.744,51.2728 Z m 28.541,0 c 0,-6.0155 -4.017,-10.2815 -9.539,-10.2815 -5.521,0 -9.538,4.2552 -9.538,10.2815 0,6.0912 4.017,10.2816 9.538,10.2816 5.522,0 9.539,-4.2012 9.539,-10.2816 z"
     fill="#1b1340"
     id="path8" />
  <path
     d="M 321.754,69.1576 V 48.8321 c 0,-9.4392 5.984,-16.2216 16.661,-16.2216 10.602,0 16.585,6.7716 16.585,16.2216 v 20.3255 h -9.539 V 49.5881 c 0,-5.2488 -2.352,-8.532 -7.046,-8.532 -4.694,0 -7.047,3.2724 -7.047,8.532 v 19.5695 z"
     fill="#1b1340"
     id="path10" />
  <path
     d="m 275.865,41.0663 h -10.376 v 13.3272 c 0,4.644 1.665,6.7716 6.434,6.7716 0.451,0 1.59,0 3.029,-0.0756 v 7.8408 c -1.965,0.5292 -3.705,0.8424 -5.607,0.8424 -8.024,0 -13.481,-4.8708 -13.481,-14.0832 V 41.0663 h -6.445 v -7.6895 h 1.612 c 0.633,0 1.267,-0.1296 1.847,-0.3672 0.591,-0.2484 1.117,-0.6048 1.568,-1.0584 0.452,-0.4536 0.806,-0.9828 1.053,-1.5768 0.247,-0.594 0.365,-1.2204 0.365,-1.8576 V 21.27 h 9.614 v 12.1068 h 10.377 v 7.6895 z"
     fill="#1b1340"
     id="path12" />
  <path
     fill-rule="evenodd"
     clip-rule="evenodd"
     d="M 83.4613,16.1551 V 86 h 11.578 C 101.094,86 106,81.026 106,74.9015 V 2.47101 c 0,-2.09261199 -2.404,-3.23204199 -3.997,-1.89540199 z"
     fill="url(#paint0_linear_11985_190892)"
     id="path22"
     style="fill:url(#paint0_linear_11985_190892)" />
  <path
     fill-rule="evenodd"
     clip-rule="evenodd"
     d="M 67.3128,29.7407 46.1604,48.6618 c -3.6066,3.2211 -8.9895,3.2978 -12.6827,0.1862 L 0,20.6691 V 2.482 C 0,0.38939001 2.40441,-0.76099599 3.99653,0.57564301 L 45.998,35.8761 c 4.0615,3.4183 9.9534,3.4183 14.0149,0 z"
     fill="url(#paint1_linear_11985_190892)"
     id="path24"
     style="fill:url(#paint1_linear_11985_190892)" />
  <path
     d="m 83.4613,16.1661 -16.1485,13.5746 0.0108,-10e-5 -21.1632,18.9212 c -3.6066,3.2211 -8.9895,3.2978 -12.6827,0.1862 L 0,20.6691 V 74.9015 C 0,81.0259 4.9063,86 10.9607,86 h 72.5006 z"
     fill="url(#paint2_radial_11985_190892)"
     id="path26"
     style="fill:url(#paint2_radial_11985_190892)" />
  <defs
     id="defs43">
    <linearGradient
       id="paint0_linear_11985_190892"
       x1="265.97501"
       y1="141.754"
       x2="244.3"
       y2="-73.404099"
       gradientUnits="userSpaceOnUse">
      <stop
         offset="0.271"
         stop-color="#E3D9FF"
         id="stop28" />
      <stop
         offset="1"
         stop-color="#7341FF"
         id="stop30" />
    </linearGradient>
    <linearGradient
       id="paint1_linear_11985_190892"
       x1="62.634602"
       y1="86.798401"
       x2="18.552999"
       y2="-87.2799"
       gradientUnits="userSpaceOnUse">
      <stop
         stop-color="#E3D9FF"
         id="stop33" />
      <stop
         offset="1"
         stop-color="#7341FF"
         id="stop35" />
    </linearGradient>
    <radialGradient
       id="paint2_radial_11985_190892"
       cx="0"
       cy="0"
       r="1"
       gradientUnits="userSpaceOnUse"
       gradientTransform="matrix(123.614,0,0,125.045,105.538,10.5272)">
      <stop
         offset="0.5561"
         stop-color="#6D4AFF"
         id="stop38" />
      <stop
         offset="0.9944"
         stop-color="#AA8EFF"
         id="stop40" />
    </radialGradient>
  </defs>
</svg>
