<?xml version="1.0" encoding="UTF-8" standalone="no"?>
<!-- Uploaded to: SVG Repo, www.svgrepo.com, Generator: SVG Repo Mixer Tools -->

<svg
   fill="#000000"
   height="805"
   width="805"
   version="1.1"
   id="Layer_1"
   viewBox="0 0 515.2 515.2"
   xml:space="preserve"
   sodipodi:docname="time_8h.svg"
   inkscape:version="1.2.2 (b0a8486541, 2022-12-01)"
   xmlns:inkscape="http://www.inkscape.org/namespaces/inkscape"
   xmlns:sodipodi="http://sodipodi.sourceforge.net/DTD/sodipodi-0.dtd"
   xmlns="http://www.w3.org/2000/svg"
   xmlns:svg="http://www.w3.org/2000/svg"><defs
   id="defs17" /><sodipodi:namedview
   id="namedview15"
   pagecolor="#ffffff"
   bordercolor="#000000"
   borderopacity="0.25"
   inkscape:showpageshadow="2"
   inkscape:pageopacity="0.0"
   inkscape:pagecheckerboard="0"
   inkscape:deskcolor="#d1d1d1"
   showgrid="false"
   inkscape:zoom="0.83124818"
   inkscape:cx="445.11376"
   inkscape:cy="394.58733"
   inkscape:window-width="1920"
   inkscape:window-height="995"
   inkscape:window-x="0"
   inkscape:window-y="0"
   inkscape:window-maximized="1"
   inkscape:current-layer="Layer_1" />
<g
   id="g6"
   transform="translate(1.6000023,1.6000023)">
	<g
   id="g4">
		<path
   d="M 491.841,156.427 C 472.37,110.481 439.904,71.414 399.055,43.79 358.217,16.166 308.893,-0.007 256,0 220.746,-0.002 187.054,7.18 156.429,20.158 110.484,39.63 71.416,72.093 43.791,112.943 16.167,153.78 -0.007,203.104 0,256 c -0.002,35.255 7.181,68.948 20.159,99.573 19.471,45.946 51.937,85.013 92.786,112.637 40.838,27.624 90.162,43.797 143.055,43.79 35.253,0.002 68.946,-7.18 99.571,-20.158 45.945,-19.471 85.013,-51.935 112.638,-92.785 C 495.834,358.22 512.007,308.894 512,256 c 0.002,-35.255 -7.181,-68.948 -20.159,-99.573 z"
   id="path2"
   style="stroke:#ffffff;stroke-width:3.2;stroke-dasharray:none;stroke-opacity:1"
   sodipodi:nodetypes="ccccccccccccc" />
	</g>
</g>

<path
   d="m 462.0135,343.8585 c -16.851,39.781 -45.045,73.723 -80.476,97.676 -35.443,23.953 -78.02,37.926 -123.936,37.933 -30.619,-0.002 -59.729,-6.218 -86.255,-17.454 -39.781,-16.851 -73.724,-45.044 -97.677,-80.475 -23.955,-35.444 -37.929,-78.022 -37.936,-123.939 0.002,-30.62 6.219,-59.731 17.454,-86.257 16.851,-39.781 45.045,-73.724004 80.476,-97.676004 35.443,-23.953996 78.021,-37.926996 123.937,-37.933996 30.619,0.002 59.729,6.218 86.255,17.454 39.781,16.849996 73.724,45.043996 97.677,80.475 23.953,35.443 37.927,78.02 37.934,123.939 -0.002,30.62 -6.218,59.731 -17.453,86.258 z"
   style="fill:#ffffff;fill-opacity:1;stroke:#ffffff;stroke-width:4.26667;stroke-dasharray:none;stroke-opacity:1"
   id="path1292" /><g
   aria-label="8h"
   id="text415"
   style="font-size:293.547px;stroke-width:6.432;stroke-linecap:round;stroke-linejoin:round;paint-order:fill markers stroke"
   transform="translate(1.6000023,1.6000023)"><path
     d="m 169.69711,153.55211 q 27.59342,0 45.20624,12.91607 17.61282,12.91607 17.61282,37.28047 0,12.62252 -5.57739,22.01602 -5.28385,9.39351 -14.38381,16.73218 -9.09995,7.04513 -19.96119,12.62252 12.91606,6.16449 23.48376,14.09026 10.56769,7.63222 16.73218,17.90637 6.45803,10.27414 6.45803,24.65794 0,26.41923 -18.78701,41.97723 -18.49346,15.26444 -49.90299,15.26444 -33.7579,0 -51.95782,-14.67735 -18.19991,-14.9709 -18.19991,-41.68367 0,-14.38381 5.87094,-24.9515 6.16449,-10.56769 16.14508,-18.19991 9.9806,-7.63222 21.42894,-12.91607 -15.26445,-8.80641 -26.12569,-21.13538 -10.56769,-12.62253 -10.56769,-31.99663 0,-16.14508 8.21932,-27.00632 8.21931,-11.15479 22.30957,-17.02573 14.09025,-5.87094 31.99662,-5.87094 z m -0.29355,20.84184 q -16.14508,0 -26.71277,7.92577 -10.27415,7.63222 -10.27415,22.30957 0,10.86124 4.9903,18.19991 5.28385,7.33868 14.09026,12.62253 8.80641,4.99029 19.3741,9.68705 15.26444,-6.45804 25.53859,-15.55799 10.56769,-9.09996 10.56769,-24.9515 0,-14.67735 -10.27415,-22.30957 -10.27414,-7.92577 -27.29987,-7.92577 z m -43.7385,138.55418 q 0,15.26445 10.86124,25.53859 10.86124,9.9806 33.46436,9.9806 21.42893,0 32.58371,-9.9806 11.44834,-10.27414 11.44834,-26.41923 0,-15.26444 -12.03543,-25.24504 -12.03543,-10.27414 -31.99662,-17.90637 l -4.69675,-1.76128 q -19.37411,8.21932 -29.64825,19.08056 -9.9806,10.56769 -9.9806,26.71277 z"
     id="path417"
     style="stroke:#ffffff;stroke-width:3.2;stroke-dasharray:none;stroke-opacity:1" /><path
     d="m 304.72887,208.4454 q 0,11.74188 -1.46773,22.01603 h 1.76128 q 7.63222,-12.03543 20.54829,-18.19992 13.20962,-6.16448 28.47406,-6.16448 28.76761,0 43.15141,13.7967 14.3838,13.50317 14.3838,43.73851 v 102.4479 H 386.04139 V 265.39352 q 0,-37.86756 -35.22564,-37.86756 -26.41923,0 -36.39982,14.97089 -9.68706,14.67735 -9.68706,42.27077 v 81.31252 H 278.89674 V 142.98442 h 25.83213 z"
     id="path419"
     style="stroke:#ffffff;stroke-width:3.2;stroke-dasharray:none;stroke-opacity:1" /></g></svg>
