<?xml version="1.0" encoding="UTF-8" standalone="no"?>
<!-- Uploaded to: SVG Repo, www.svgrepo.com, Generator: SVG Repo Mixer Tools -->

<svg
   fill="#000000"
   height="805"
   width="805"
   version="1.1"
   id="Layer_1"
   viewBox="0 0 515.2 515.2"
   xml:space="preserve"
   sodipodi:docname="time_3h.svg"
   inkscape:version="1.2.2 (b0a8486541, 2022-12-01)"
   xmlns:inkscape="http://www.inkscape.org/namespaces/inkscape"
   xmlns:sodipodi="http://sodipodi.sourceforge.net/DTD/sodipodi-0.dtd"
   xmlns="http://www.w3.org/2000/svg"
   xmlns:svg="http://www.w3.org/2000/svg"><defs
   id="defs17" /><sodipodi:namedview
   id="namedview15"
   pagecolor="#ffffff"
   bordercolor="#000000"
   borderopacity="0.25"
   inkscape:showpageshadow="2"
   inkscape:pageopacity="0.0"
   inkscape:pagecheckerboard="0"
   inkscape:deskcolor="#d1d1d1"
   showgrid="false"
   inkscape:zoom="0.83124818"
   inkscape:cx="422.85807"
   inkscape:cy="394.58733"
   inkscape:window-width="1920"
   inkscape:window-height="995"
   inkscape:window-x="0"
   inkscape:window-y="0"
   inkscape:window-maximized="1"
   inkscape:current-layer="Layer_1" />
<g
   id="g6"
   transform="translate(1.6000023,1.6000023)">
	<g
   id="g4">
		<path
   d="M 491.841,156.427 C 472.37,110.481 439.904,71.414 399.055,43.79 358.217,16.166 308.893,-0.007 256,0 220.746,-0.002 187.054,7.18 156.429,20.158 110.484,39.63 71.416,72.093 43.791,112.943 16.167,153.78 -0.007,203.104 0,256 c -0.002,35.255 7.181,68.948 20.159,99.573 19.471,45.946 51.937,85.013 92.786,112.637 40.838,27.624 90.162,43.797 143.055,43.79 35.253,0.002 68.946,-7.18 99.571,-20.158 45.945,-19.471 85.013,-51.935 112.638,-92.785 C 495.834,358.22 512.007,308.894 512,256 c 0.002,-35.255 -7.181,-68.948 -20.159,-99.573 z"
   id="path2"
   style="stroke:#ffffff;stroke-width:3.2;stroke-dasharray:none;stroke-opacity:1"
   sodipodi:nodetypes="ccccccccccccc" />
	</g>
</g>

<path
   d="m 462.0135,343.8585 c -16.851,39.781 -45.045,73.723 -80.476,97.676 -35.443,23.953 -78.02,37.926 -123.936,37.933 -30.619,-0.002 -59.729,-6.218 -86.255,-17.454 -39.781,-16.851 -73.724,-45.044 -97.677,-80.475 -23.955,-35.444 -37.929,-78.022 -37.936,-123.939 0.002,-30.62 6.219,-59.731 17.454,-86.257 16.851,-39.781 45.045,-73.724004 80.476,-97.676004 35.443,-23.953996 78.021,-37.926996 123.937,-37.933996 30.619,0.002 59.729,6.218 86.255,17.454 39.781,16.849996 73.724,45.043996 97.677,80.475 23.953,35.443 37.927,78.02 37.934,123.939 -0.002,30.62 -6.218,59.731 -17.453,86.258 z"
   style="fill:#ffffff;fill-opacity:1;stroke:#ffffff;stroke-width:4.26667;stroke-dasharray:none;stroke-opacity:1"
   id="path1292" /><g
   aria-label="1h"
   id="text354"
   style="font-size:293.547px;stroke-width:6.432;stroke-linecap:round;stroke-linejoin:round;paint-order:fill markers stroke"
   transform="translate(1.6000023,1.6000023)"><g
     aria-label="3h"
     id="text346"><path
       d="m 231.34198,205.50993 q 0,21.13539 -11.74188,33.75791 -11.74188,12.32897 -31.70307,16.43863 v 1.17419 q 25.24504,2.93547 37.57401,15.85153 12.32898,12.91607 12.32898,33.75791 0,18.19991 -8.51287,32.58372 -8.51286,14.09025 -26.41923,22.01602 -17.61282,7.92577 -45.49978,7.92577 -16.43863,0 -30.52889,-2.64192 -14.09025,-2.34838 -27.006321,-8.80641 v -24.07086 q 13.209611,6.45804 28.474061,10.27415 15.26444,3.52256 29.3547,3.52256 28.18051,0 40.50948,-10.86124 12.62252,-11.15478 12.62252,-30.52889 0,-19.66764 -15.55799,-28.18051 -15.26444,-8.80641 -43.15141,-8.80641 h -20.25474 v -22.01602 h 20.54829 q 25.83214,0 39.04175,-10.86124 13.50316,-10.86124 13.50316,-28.76761 0,-15.26444 -10.27414,-23.48376 -10.27415,-8.51286 -27.88697,-8.51286 -17.02572,0 -29.06115,4.9903 -12.03543,4.9903 -23.77731,12.62252 l -12.91606,-17.61282 q 11.15478,-8.80641 27.59341,-15.26444 16.73218,-6.45804 37.86757,-6.45804 32.87726,0 48.7288,14.67735 16.14508,14.67735 16.14508,37.28047 z"
       id="path398"
       style="stroke:#ffffff;stroke-width:3.2;stroke-dasharray:none;stroke-opacity:1" /><path
       d="m 305.31597,208.4454 q 0,11.74188 -1.46773,22.01603 h 1.76128 q 7.63222,-12.03543 20.54829,-18.19992 13.20961,-6.16448 28.47406,-6.16448 28.7676,0 43.15141,13.7967 14.3838,13.50317 14.3838,43.73851 v 102.4479 H 386.62849 V 265.39352 q 0,-37.86756 -35.22564,-37.86756 -26.41923,0 -36.39983,14.97089 -9.68705,14.67735 -9.68705,42.27077 v 81.31252 H 279.48384 V 142.98442 h 25.83213 z"
       id="path400"
       style="stroke:#ffffff;stroke-width:3.2;stroke-dasharray:none;stroke-opacity:1" /></g></g></svg>
